<svg id="Group_25" data-name="Group 25" xmlns="http://www.w3.org/2000/svg" viewBox="390 27 165 165">
  <defs>
    <style>
      .cls-1, .cls-10, .cls-2, .cls-5, .cls-6 {
        fill: none;
      }

      .cls-1, .cls-5 {
        stroke: #ffa000;
      }

      .cls-1 {
        stroke-width: 2px;
      }

      .cls-2, .cls-6 {
        stroke: #fff;
      }

      .cls-2 {
        stroke-width: 9px;
      }

      .cls-3, .cls-8 {
        fill: #fff;
      }

      .cls-3, .cls-4 {
        font-size: 33px;
        font-family: Attentica4F-UltraLight, "Attentica 4F";
        font-weight: 100;
      }

      .cls-4, .cls-7 {
        fill: #ffa000;
      }

      .cls-9 {
        stroke: none;
      }
    </style>
  </defs>
  <g id="Ellipse_1" data-name="Ellipse 1" class="cls-1" transform="translate(390 27)">
    <circle class="cls-9" cx="82.5" cy="82.5" r="82.5"/>
    <circle class="cls-10" cx="82.5" cy="82.5" r="81.5"/>
  </g>
  <g id="Ellipse_2" data-name="Ellipse 2" class="cls-2" transform="translate(396 33)">
    <circle class="cls-9" cx="76.5" cy="76.5" r="76.5"/>
    <circle class="cls-10" cx="76.5" cy="76.5" r="72"/>
  </g>
  <text id="KOVKA" class="cls-3" transform="translate(412 121)"><tspan x="0" y="0">KOVKA</tspan></text>
  <text id="servis" class="cls-4" transform="translate(487 121)"><tspan x="0" y="0">servis</tspan></text>
  <path id="Path_1" data-name="Path 1" class="cls-5" d="M570.5,54.526c-32.8,56.806,0,67.056,0,67.056Z" transform="translate(-101 21)"/>
  <path id="Path_2" data-name="Path 2" class="cls-6" d="M570.669,54.526c-33.179,56.961,0,67.238,0,67.238Z" transform="translate(1042.423 193.108) rotate(-180)"/>
  <rect id="Rectangle_8" data-name="Rectangle 8" class="cls-7" width="6" height="6" transform="translate(421 76)"/>
  <rect id="Rectangle_26" data-name="Rectangle 26" class="cls-8" width="6" height="6" transform="translate(494 161)"/>
  <rect id="Rectangle_17" data-name="Rectangle 17" class="cls-8" width="6" height="6" transform="translate(494 58) rotate(-90)"/>
  <rect id="Rectangle_18" data-name="Rectangle 18" class="cls-7" width="6" height="6" transform="translate(421 143) rotate(-90)"/>
  <rect id="Rectangle_9" data-name="Rectangle 9" class="cls-7" width="6" height="6" transform="translate(427 70)"/>
  <rect id="Rectangle_25" data-name="Rectangle 25" class="cls-8" width="6" height="6" transform="translate(500 155)"/>
  <rect id="Rectangle_16" data-name="Rectangle 16" class="cls-8" width="6" height="6" transform="translate(500 64) rotate(-90)"/>
  <rect id="Rectangle_19" data-name="Rectangle 19" class="cls-7" width="6" height="6" transform="translate(427 149) rotate(-90)"/>
  <rect id="Rectangle_10" data-name="Rectangle 10" class="cls-7" width="6" height="6" transform="translate(433 64)"/>
  <rect id="Rectangle_23" data-name="Rectangle 23" class="cls-8" width="6" height="6" transform="translate(506 149)"/>
  <rect id="Rectangle_15" data-name="Rectangle 15" class="cls-8" width="6" height="6" transform="translate(506 70) rotate(-90)"/>
  <rect id="Rectangle_11" data-name="Rectangle 11" class="cls-7" width="6" height="6" transform="translate(439 58)"/>
  <rect id="Rectangle_27" data-name="Rectangle 27" class="cls-8" width="6" height="6" transform="translate(512 143)"/>
  <rect id="Rectangle_14" data-name="Rectangle 14" class="cls-8" width="6" height="6" transform="translate(512 76) rotate(-90)"/>
  <rect id="Rectangle_21" data-name="Rectangle 21" class="cls-7" width="6" height="6" transform="translate(439 161) rotate(-90)"/>
  <rect id="Rectangle_12" data-name="Rectangle 12" class="cls-7" width="6" height="6" transform="translate(445 52)"/>
  <rect id="Rectangle_24" data-name="Rectangle 24" class="cls-8" width="6" height="6" transform="translate(518 137)"/>
  <rect id="Rectangle_13" data-name="Rectangle 13" class="cls-8" width="6" height="6" transform="translate(518 82) rotate(-90)"/>
  <rect id="Rectangle_22" data-name="Rectangle 22" class="cls-7" width="6" height="6" transform="translate(445 167) rotate(-90)"/>
</svg>
